<?xml version="1.0" encoding="UTF-8" standalone="no"?>
<!DOCTYPE svg PUBLIC "-//W3C//DTD SVG 1.1//EN" "http://www.w3.org/Graphics/SVG/1.1/DTD/svg11.dtd">
<svg width="100%" height="100%" viewBox="0 0 83 83" version="1.1" xmlns="http://www.w3.org/2000/svg" xmlns:xlink="http://www.w3.org/1999/xlink" xml:space="preserve" style="fill-rule:evenodd;clip-rule:evenodd;stroke-linejoin:round;stroke-miterlimit:1.41421;">
    <g transform="matrix(0.18412,0,0,0.18412,-20.4152,-58.7633)">
        <g id="Aufgabenart--Kontur-0-8-">
            <g id="computer-Internet-neu">
                <g id="Computer" transform="matrix(1,0,0,1,0,20.3692)">
                    <g id="Fuss" transform="matrix(1,0,0,1,0,4.39134)">
                        <path d="M302.04,646.36C297.908,646.36 294.557,649.711 294.557,653.843L294.557,686.517L266.739,686.517C261.727,686.517 257.714,690.587 257.714,695.599L257.714,699.426C257.714,704.439 261.727,708.452 266.739,708.452L398.809,708.452C403.821,708.452 407.834,704.439 407.834,699.426L407.834,695.599C407.834,690.587 403.821,686.517 398.809,686.517L371.334,686.517L371.334,653.843C371.334,649.711 368.041,646.36 363.908,646.36L302.045,646.36L302.04,646.36Z" style="fill:rgb(150, 180, 200);fill-rule:nonzero;stroke:#aaccff;stroke-width:10.3px;"/>
                    </g>
                    <g id="Rahmen" transform="matrix(1.43082e-16,-2.33671,-2.33671,-1.43082e-16,627.331,1275.51)">
                        <path d="M287.76,46.679C282.124,46.679 277.572,51.199 277.572,56.835L277.572,194.895C277.572,200.531 282.124,205.083 287.76,205.083L388.04,205.083C393.676,205.083 398.196,200.531 398.196,194.895L398.196,59.361C398.196,59.361 399.075,46.923 387.389,46.676C385.672,46.64 287.752,46.676 287.752,46.676L287.76,46.679Z" style="fill:white;fill-rule:nonzero;stroke:#aaccff;stroke-width:5.96px;stroke-linecap:round;"/>
                    </g>
                    <g transform="matrix(4.28086,0,0,4.39134,129.039,312.013)">
                        <path d="M89.394,68.53L5.481,68.704" style="fill:none;stroke:#aaccff;stroke-width:3.65px;stroke-linecap:round;"/>
                    </g>
                    <g id="path4092" transform="matrix(1.31137,0,0,1.39881,-127.056,-170.509)">
                        <path d="M350.98,560.09C353.797,560.092 356.114,562.266 356.114,564.907C356.114,567.549 353.795,569.723 350.976,569.723C348.158,569.723 345.838,567.549 345.838,564.907C345.838,562.347 348.015,560.212 350.742,560.095" style="fill:white;fill-rule:nonzero;"/>
                    </g>
                </g>
                <g id="WWW" transform="matrix(0.861252,0,0,0.861252,8.50452,41.5992)">
                    <path d="M375.039,397.115C312.937,397.115 260.052,437.106 242.454,492.22L262.102,492.22C264.143,486.773 266.584,481.524 269.408,476.493L307.219,476.493C305.57,481.638 304.214,486.9 303.091,492.22L322.244,492.22C323.582,486.858 325.177,481.593 327.074,476.493L363.564,476.493L363.564,492.22L382.056,492.22L382.056,476.493L421.477,476.493C423.598,481.597 425.38,486.854 426.884,492.22L446.037,492.22C444.751,486.894 443.253,481.642 441.414,476.493L480.67,476.493C483.494,481.525 485.934,486.772 487.976,492.22L507.583,492.22C489.985,437.106 437.141,397.115 375.039,397.115ZM402.943,418.869C428.827,424.821 451.433,438.779 467.791,458.001L433.489,458.001C425.828,443.179 415.677,429.803 402.943,418.869L402.943,418.869ZM341.727,420.231C330.264,430.872 321.222,443.756 314.484,458.001L282.287,458.001C297.496,440.128 318.103,426.808 341.727,420.231ZM382.056,426.175C394.248,434.521 404.086,445.527 411.9,458.001L382.056,458.001L382.056,426.175ZM363.564,426.299L363.564,458.001L335.701,458.001C342.859,445.498 351.997,434.52 363.564,426.299ZM241.752,570.071C258.552,626.43 312.024,667.611 375.039,667.611C438.054,667.611 491.526,626.431 508.326,570.071L488.801,570.071C486.94,575.386 484.714,580.525 482.114,585.467L442.487,585.467C444.174,580.428 445.567,575.277 446.739,570.071L427.875,570.071C426.558,575.335 424.98,580.479 423.045,585.467L382.056,585.467L382.056,570.071L363.564,570.071L363.564,585.467L326.124,585.467C324.427,580.497 322.966,575.348 321.749,570.071L302.761,570.071C303.825,575.283 305.123,580.428 306.6,585.467L267.963,585.467C265.363,580.525 263.097,575.386 261.235,570.071L241.752,570.071L241.752,570.071ZM280.099,603.96L313.245,603.96C320.011,619.609 328.98,633.584 340.53,644.206C316.212,637.172 295.254,622.899 280.099,603.96ZM333.843,603.96L363.564,603.96L363.564,638.51C351.554,630.897 341.509,618.76 333.843,603.96ZM382.056,603.96L413.84,603.96C405.771,617.449 395.277,629.119 382.056,637.643L382.056,603.96ZM435.099,603.96L469.979,603.96C453.288,624.819 429.52,640.006 402.035,646.105C416.138,634.701 427.097,620.181 435.099,603.96Z" style="fill:rgb(170, 170, 170);fill-rule:nonzero;"/>
                </g>
                <g transform="matrix(5.21036,0,0,4.39134,86.2387,368.478)">
                    <g transform="matrix(0.902975,0,0,1.08221,2.04247,-2.6907)">
                        <path d="M27.179,36.327L24.33,24.397L26.796,24.397L28.595,32.592L30.776,24.397L33.64,24.397L35.732,32.73L37.563,24.397L39.988,24.397L37.091,36.327L34.535,36.327L32.159,27.408L29.791,36.327L27.179,36.327Z" style="fill-rule:nonzero;fill:#aaccff;"/>
                    </g>
                    <g transform="matrix(0.902975,0,0,1.08221,2.04247,-2.6907)">
                        <path d="M44.909,36.327L42.061,24.397L44.527,24.397L46.325,32.592L48.506,24.397L51.371,24.397L53.462,32.73L55.293,24.397L57.719,24.397L54.821,36.327L52.266,36.327L49.89,27.408L47.522,36.327L44.909,36.327Z" style="fill-rule:nonzero;fill:#aaccff;"/>
                    </g>
                    <g transform="matrix(0.902975,0,0,1.08221,2.04247,-2.6907)">
                        <path d="M62.64,36.327L59.792,24.397L62.258,24.397L64.056,32.592L66.237,24.397L69.102,24.397L71.193,32.73L73.024,24.397L75.449,24.397L72.552,36.327L69.997,36.327L67.621,27.408L65.252,36.327L62.64,36.327Z" style="fill-rule:nonzero;fill:#aaccff;"/>
                    </g>
                </g>
            </g>
        </g>
    </g>
</svg>
